<svg xmlns="http://www.w3.org/2000/svg" viewBox="0 0 64 64">
    <rect width="64" height="64" rx="14" fill="#2563eb"/>
    <path fill="#fff" d="M16 20a4 4 0 0 1 4-4h24a4 4 0 0 1 4 4v6H16v-6Z"/>
    <path fill="#dbeafe" d="M16 28h32v16a4 4 0 0 1-4 4H20a4 4 0 0 1-4-4V28Z"/>
    <path fill="#1e40af" d="M22 34h20v4H22v-4Zm0 8h12v4H22v-4Z"/>
    <circle cx="43" cy="43" r="9" fill="#22c55e"/>
    <path fill="#fff" d="M42 48v-2.1a7.2 7.2 0 0 1-3.4-1l1.1-2.4a6 6 0 0 0 3 .9c1 0 1.6-.3 1.6-.9 0-.5-.5-.9-1.9-1.3-2-.6-3.5-1.5-3.5-3.3 0-1.6 1.1-2.8 3.1-3.2V33h2v1.7a6 6 0 0 1 2.9.7l-1.1 2.3a5.3 5.3 0 0 0-2.5-.7c-1.1 0-1.4.4-1.4.8 0 .5.6.8 2.2 1.3 2.3.7 3.2 1.8 3.2 3.4 0 1.6-1.1 3-3.3 3.4V48h-2Z"/>
</svg>
